<svg width="80" height="80" viewBox="0 0 80 80" fill="none" xmlns="http://www.w3.org/2000/svg">
  <path d="M40.3546 0L75.7091 19.9977V60.0023L40.3546 80L5 60.0023V19.9977L40.3546 0Z" fill="white"/>
  <path d="M69.3967 58.6229L41.5242 74.3908V62.1126L58.8908 52.5569L69.3967 58.6229ZM71.306 56.8962V23.926L61.1108 29.8185V51.013L71.306 56.8962ZM11.2033 58.6229L39.0758 74.3908V62.1126L21.7 52.5569L11.2033 58.6229ZM9.29395 56.8962V23.926L19.4892 29.8185V51.013L9.29395 56.8962ZM10.4907 21.7883L39.0758 5.61841V17.4855L20.7591 27.562L20.6129 27.6442L10.4907 21.7883ZM70.1093 21.7883L41.5242 5.61841V17.4855L59.8409 27.5529L59.9871 27.6351L70.1093 21.7883Z" fill="#8ED6FB"/>
  <path d="M39.0758 59.3171L21.9375 49.8892V31.2253L39.0758 41.1191V59.3171ZM41.5241 59.3171L58.6624 49.8984V31.2253L41.5241 41.1191V59.3171ZM23.0977 29.0693L40.3 19.614L57.5022 29.0693L40.3 38.9996L23.0977 29.0693Z" fill="#1C78C0"/>
</svg>
